<svg version="1.1" id="Layer_1" xmlns="http://www.w3.org/2000/svg" xmlns:xlink="http://www.w3.org/1999/xlink" x="0px" y="0px"
	 width="100%" viewBox="0 0 2000 2000" enable-background="new 0 0 2000 2000" xml:space="preserve">
<path fill="#4C6971" opacity="1.000000" stroke="none" 
	d="
M1188.000000,2001.000000 
	C792.000000,2001.000000 396.500000,2001.000000 1.000000,2001.000000 
	C1.000000,1334.333374 1.000000,667.666687 1.000000,1.000000 
	C667.666687,1.000000 1334.333374,1.000000 2001.000000,1.000000 
	C2001.000000,667.666687 2001.000000,1334.333374 2001.000000,2001.000000 
	C1730.166626,2001.000000 1459.333374,2001.000000 1188.000000,2001.000000 
M570.996155,1881.499756 
	C587.267273,1888.977417 603.393066,1896.793579 619.840393,1903.861084 
	C652.275635,1917.798462 685.501221,1929.595337 719.339966,1939.696655 
	C760.484619,1951.978760 802.141357,1962.080322 844.676392,1968.005005 
	C875.308899,1972.271606 906.069214,1975.719360 936.844116,1978.822998 
	C952.174927,1980.369141 967.661560,1980.691528 983.086426,1980.888794 
	C997.371155,1981.071533 1011.680664,1980.632568 1025.955688,1979.963501 
	C1049.475586,1978.860718 1072.991455,1977.564819 1096.479614,1975.930298 
	C1109.679810,1975.011719 1122.909546,1973.808594 1135.969482,1971.744019 
	C1158.003662,1968.260498 1179.945557,1964.160889 1201.868164,1960.012817 
	C1236.396973,1953.479370 1270.182007,1944.013916 1303.579346,1933.194336 
	C1319.175903,1928.141602 1334.720581,1922.822144 1349.953979,1916.779541 
	C1371.798462,1908.114502 1393.654541,1899.354980 1414.917480,1889.381470 
	C1436.812622,1879.111328 1458.211670,1867.719604 1479.433594,1856.098511 
	C1496.116333,1846.963013 1512.489746,1837.183594 1528.484619,1826.888428 
	C1557.014648,1808.524658 1585.091553,1789.449341 1611.056396,1767.510376 
	C1632.054077,1749.768311 1653.279419,1732.250977 1673.516724,1713.667847 
	C1689.061768,1699.393555 1703.499146,1683.870483 1717.922363,1668.429321 
	C1730.699341,1654.750488 1743.306885,1640.845459 1755.039673,1626.275391 
	C1772.459473,1604.642944 1789.899414,1582.934937 1805.789795,1560.182861 
	C1833.124268,1521.045288 1857.810181,1480.215576 1878.444336,1437.066528 
	C1886.603638,1420.004150 1895.530396,1403.229248 1902.446533,1385.669189 
	C1914.332153,1355.491333 1925.653809,1325.043823 1935.802490,1294.245117 
	C1943.454956,1271.021973 1949.303467,1247.172607 1955.236938,1223.422607 
	C1962.854248,1192.933228 1968.574219,1162.046021 1972.052124,1130.787354 
	C1974.484863,1108.922607 1977.251953,1087.071899 1978.808594,1065.139526 
	C1980.265381,1044.615356 1980.635376,1023.995850 1980.896973,1003.410828 
	C1981.088867,988.292969 1980.493896,973.157288 1979.949585,958.040405 
	C1979.514282,945.948975 1978.993286,933.839172 1977.852905,921.799744 
	C1976.231079,904.678589 1974.324585,887.570435 1971.956787,870.537720 
	C1969.204956,850.741150 1966.485229,830.898621 1962.538452,811.320679 
	C1958.097046,789.290100 1952.502808,767.482117 1947.049438,745.667542 
	C1938.765503,712.528503 1927.925903,680.161133 1915.604858,648.347351 
	C1902.620728,614.821045 1888.077881,581.931641 1871.049072,550.217163 
	C1862.508789,534.312012 1854.053589,518.338806 1844.856934,502.812927 
	C1820.703003,462.036163 1794.313599,422.757904 1763.850586,386.372528 
	C1747.582642,366.942108 1731.305298,347.474518 1714.093384,328.893433 
	C1699.748047,313.407196 1684.345825,298.852020 1668.839600,284.502716 
	C1652.916260,269.767548 1636.734253,255.243790 1619.871216,241.609833 
	C1600.346313,225.823746 1580.432495,210.424377 1559.839844,196.073425 
	C1518.878540,167.527557 1476.180054,141.788483 1430.936035,120.475464 
	C1417.142456,113.977791 1403.401611,107.350883 1389.443237,101.223549 
	C1357.878662,87.367645 1325.564941,75.495377 1292.628052,65.301704 
	C1255.906494,53.936771 1218.643555,44.898205 1180.877075,37.680786 
	C1147.357666,31.275007 1113.568359,27.038609 1079.633179,24.236309 
	C1055.002075,22.202314 1030.224976,21.791855 1005.500610,21.102646 
	C995.057495,20.811539 984.576477,21.534374 974.123474,22.024942 
	C955.238953,22.911203 936.320984,23.482637 917.493774,25.086575 
	C896.897217,26.841244 876.249207,28.779610 855.873291,32.147774 
	C827.013062,36.918411 798.238281,42.429714 769.687500,48.793381 
	C732.467651,57.089298 696.016846,68.307610 660.470825,82.129333 
	C635.165771,91.968971 610.064270,102.411133 585.301697,113.540596 
	C567.631775,121.482285 550.420166,130.551407 533.466492,139.951309 
	C513.191101,151.192856 493.060577,162.774841 473.492767,175.194809 
	C443.168915,194.441772 413.685638,214.964600 386.235809,238.224182 
	C367.299988,254.269440 348.048279,269.995270 329.883026,286.880737 
	C313.571808,302.042725 298.277802,318.337036 283.043610,334.607971 
	C270.157959,348.370636 257.451904,362.374329 245.651505,377.062744 
	C228.677383,398.191162 211.798492,419.481018 196.312210,441.700836 
	C169.679993,479.913025 145.383347,519.628601 125.147964,561.682678 
	C117.307770,577.976562 109.526688,594.306152 102.119354,610.799438 
	C87.720245,642.860779 75.659393,675.814819 65.309097,709.398499 
	C54.481152,744.532043 45.561817,780.111938 38.622181,816.245667 
	C31.873302,851.386169 27.082384,886.770325 24.222084,922.374634 
	C22.243015,947.009460 21.454657,971.778442 21.176256,996.499268 
	C20.955803,1016.074524 22.129719,1035.676392 23.038548,1055.250000 
	C23.768721,1070.976074 24.497730,1086.734863 26.191149,1102.374756 
	C28.253908,1121.425903 30.806448,1140.458130 34.094070,1159.333740 
	C38.146049,1182.597900 42.672924,1205.805542 47.898350,1228.832520 
	C55.525990,1262.445435 64.836906,1295.654785 77.216812,1327.842651 
	C88.687599,1357.666504 100.708748,1387.306641 113.508072,1416.581543 
	C121.277191,1434.351074 130.513733,1451.534668 139.940735,1468.509644 
	C151.271942,1488.913452 163.006393,1509.131592 175.467850,1528.860474 
	C193.500031,1557.409180 212.696518,1585.204834 234.498245,1611.064087 
	C252.103653,1631.945801 269.495361,1653.047119 287.962189,1673.150513 
	C302.348663,1688.811890 317.988281,1703.360718 333.544525,1717.897217 
	C347.213562,1730.670044 361.115906,1743.265747 375.675629,1754.995728 
	C397.300385,1772.417480 418.985779,1789.881104 441.739258,1805.759155 
	C482.570435,1834.252075 525.295105,1859.729980 570.996155,1881.499756 
z"/>
<path fill="#001F3F" opacity="1.000000" stroke="none" 
	d="
M570.670044,1881.316406 
	C525.295105,1859.729980 482.570435,1834.252075 441.739258,1805.759155 
	C418.985779,1789.881104 397.300385,1772.417480 375.675629,1754.995728 
	C361.115906,1743.265747 347.213562,1730.670044 333.544525,1717.897217 
	C317.988281,1703.360718 302.348663,1688.811890 287.962189,1673.150513 
	C269.495361,1653.047119 252.103653,1631.945801 234.498245,1611.064087 
	C212.696518,1585.204834 193.500031,1557.409180 175.467850,1528.860474 
	C163.006393,1509.131592 151.271942,1488.913452 139.940735,1468.509644 
	C130.513733,1451.534668 121.277191,1434.351074 113.508072,1416.581543 
	C100.708748,1387.306641 88.687599,1357.666504 77.216812,1327.842651 
	C64.836906,1295.654785 55.525990,1262.445435 47.898350,1228.832520 
	C42.672924,1205.805542 38.146049,1182.597900 34.094070,1159.333740 
	C30.806448,1140.458130 28.253908,1121.425903 26.191149,1102.374756 
	C24.497730,1086.734863 23.768721,1070.976074 23.038548,1055.250000 
	C22.129719,1035.676392 20.955803,1016.074524 21.176256,996.499268 
	C21.454657,971.778442 22.243015,947.009460 24.222084,922.374634 
	C27.082384,886.770325 31.873302,851.386169 38.622181,816.245667 
	C45.561817,780.111938 54.481152,744.532043 65.309097,709.398499 
	C75.659393,675.814819 87.720245,642.860779 102.119354,610.799438 
	C109.526688,594.306152 117.307770,577.976562 125.147964,561.682678 
	C145.383347,519.628601 169.679993,479.913025 196.312210,441.700836 
	C211.798492,419.481018 228.677383,398.191162 245.651505,377.062744 
	C257.451904,362.374329 270.157959,348.370636 283.043610,334.607971 
	C298.277802,318.337036 313.571808,302.042725 329.883026,286.880737 
	C348.048279,269.995270 367.299988,254.269440 386.235809,238.224182 
	C413.685638,214.964600 443.168915,194.441772 473.492767,175.194809 
	C493.060577,162.774841 513.191101,151.192856 533.466492,139.951309 
	C550.420166,130.551407 567.631775,121.482285 585.301697,113.540596 
	C610.064270,102.411133 635.165771,91.968971 660.470825,82.129333 
	C696.016846,68.307610 732.467651,57.089298 769.687500,48.793381 
	C798.238281,42.429714 827.013062,36.918411 855.873291,32.147774 
	C876.249207,28.779610 896.897217,26.841244 917.493774,25.086575 
	C936.320984,23.482637 955.238953,22.911203 974.123474,22.024942 
	C984.576477,21.534374 995.057495,20.811539 1005.500610,21.102646 
	C1030.224976,21.791855 1055.002075,22.202314 1079.633179,24.236309 
	C1113.568359,27.038609 1147.357666,31.275007 1180.877075,37.680786 
	C1218.643555,44.898205 1255.906494,53.936771 1292.628052,65.301704 
	C1325.564941,75.495377 1357.878662,87.367645 1389.443237,101.223549 
	C1403.401611,107.350883 1417.142456,113.977791 1430.936035,120.475464 
	C1476.180054,141.788483 1518.878540,167.527557 1559.839844,196.073425 
	C1580.432495,210.424377 1600.346313,225.823746 1619.871216,241.609833 
	C1636.734253,255.243790 1652.916260,269.767548 1668.839600,284.502716 
	C1684.345825,298.852020 1699.748047,313.407196 1714.093384,328.893433 
	C1731.305298,347.474518 1747.582642,366.942108 1763.850586,386.372528 
	C1794.313599,422.757904 1820.703003,462.036163 1844.856934,502.812927 
	C1854.053589,518.338806 1862.508789,534.312012 1871.049072,550.217163 
	C1888.077881,581.931641 1902.620728,614.821045 1915.604858,648.347351 
	C1927.925903,680.161133 1938.765503,712.528503 1947.049438,745.667542 
	C1952.502808,767.482117 1958.097046,789.290100 1962.538452,811.320679 
	C1966.485229,830.898621 1969.204956,850.741150 1971.956787,870.537720 
	C1974.324585,887.570435 1976.231079,904.678589 1977.852905,921.799744 
	C1978.993286,933.839172 1979.514282,945.948975 1979.949585,958.040405 
	C1980.493896,973.157288 1981.088867,988.292969 1980.896973,1003.410828 
	C1980.635376,1023.995850 1980.265381,1044.615356 1978.808594,1065.139526 
	C1977.251953,1087.071899 1974.484863,1108.922607 1972.052124,1130.787354 
	C1968.574219,1162.046021 1962.854248,1192.933228 1955.236938,1223.422607 
	C1949.303467,1247.172607 1943.454956,1271.021973 1935.802490,1294.245117 
	C1925.653809,1325.043823 1914.332153,1355.491333 1902.446533,1385.669189 
	C1895.530396,1403.229248 1886.603638,1420.004150 1878.444336,1437.066528 
	C1857.810181,1480.215576 1833.124268,1521.045288 1805.789795,1560.182861 
	C1789.899414,1582.934937 1772.459473,1604.642944 1755.039673,1626.275391 
	C1743.306885,1640.845459 1730.699341,1654.750488 1717.922363,1668.429321 
	C1703.499146,1683.870483 1689.061768,1699.393555 1673.516724,1713.667847 
	C1653.279419,1732.250977 1632.054077,1749.768311 1611.056396,1767.510376 
	C1585.091553,1789.449341 1557.014648,1808.524658 1528.484619,1826.888428 
	C1512.489746,1837.183594 1496.116333,1846.963013 1479.433594,1856.098511 
	C1458.211670,1867.719604 1436.812622,1879.111328 1414.917480,1889.381470 
	C1393.654541,1899.354980 1371.798462,1908.114502 1349.953979,1916.779541 
	C1334.720581,1922.822144 1319.175903,1928.141602 1303.579346,1933.194336 
	C1270.182007,1944.013916 1236.396973,1953.479370 1201.868164,1960.012817 
	C1179.945557,1964.160889 1158.003662,1968.260498 1135.969482,1971.744019 
	C1122.909546,1973.808594 1109.679810,1975.011719 1096.479614,1975.930298 
	C1072.991455,1977.564819 1049.475586,1978.860718 1025.955688,1979.963501 
	C1011.680664,1980.632568 997.371155,1981.071533 983.086426,1980.888794 
	C967.661560,1980.691528 952.174927,1980.369141 936.844116,1978.822998 
	C906.069214,1975.719360 875.308899,1972.271606 844.676392,1968.005005 
	C802.141357,1962.080322 760.484619,1951.978760 719.339966,1939.696655 
	C685.501221,1929.595337 652.275635,1917.798462 619.840393,1903.861084 
	C603.393066,1896.793579 587.267273,1888.977417 570.670044,1881.316406 
M1218.109863,968.359802 
	C1218.262085,968.269592 1218.414307,968.179382 1218.566650,968.089172 
	C1218.356201,968.094543 1218.145752,968.099854 1218.230713,967.382751 
	C1217.557251,965.866699 1216.938721,964.323486 1216.202515,962.838562 
	C1192.328979,914.679626 1168.442383,866.527283 1144.568604,818.368469 
	C1143.719849,816.656250 1142.983643,814.888245 1142.086182,812.906128 
	C1196.362305,792.560913 1250.177246,772.388489 1305.255371,751.742554 
	C1249.337036,732.890686 1194.759033,714.490601 1139.979858,696.022766 
	C1163.973999,643.252869 1187.726440,591.014709 1211.478882,538.776550 
	C1211.144165,538.580994 1210.809448,538.385498 1210.474854,538.190002 
	C1159.122559,563.620789 1107.770264,589.051514 1055.877441,614.750000 
	C1034.978638,527.235046 1014.282410,440.567993 993.586182,353.900940 
	C993.194519,353.960144 992.802917,354.019318 992.411255,354.078522 
	C974.654358,441.441467 956.897461,528.804382 939.034119,616.691040 
	C886.150574,592.628113 833.865601,568.837585 780.237976,544.436096 
	C806.447815,597.278076 831.991272,648.776428 857.777466,700.764343 
	C803.604919,721.073242 749.846313,741.226990 696.087646,761.380737 
	C696.101868,761.745422 696.116150,762.110046 696.130371,762.474731 
	C750.510803,780.814026 804.891174,799.153320 859.695129,817.635498 
	C835.598083,870.628052 811.825867,922.906311 787.503113,976.395203 
	C840.310791,950.214294 891.814880,924.679626 943.732300,898.940002 
	C965.587341,1046.397949 987.343079,1193.185547 1009.098755,1339.973145 
	C1009.510132,1339.981445 1009.921509,1339.989624 1010.332886,1339.997803 
	C1027.048340,1192.526978 1043.763916,1045.056030 1060.535889,897.087036 
	C1063.113037,898.178467 1064.651489,898.789490 1066.156860,899.473450 
	C1105.539795,917.369507 1144.905029,935.304626 1184.308350,953.155518 
	C1195.488647,958.220520 1206.778564,963.043701 1218.109863,968.359802 
M1053.746826,1664.267090 
	C1075.067383,1644.955566 1081.926270,1617.093994 1071.367188,1591.617188 
	C1061.244873,1567.194092 1038.034302,1550.898804 1009.021545,1552.068604 
	C969.593628,1553.658081 942.505066,1592.011475 949.365540,1626.802246 
	C955.066284,1655.711914 979.556030,1679.931641 1013.923340,1679.786987 
	C1028.478271,1679.725708 1041.844482,1674.270874 1053.746826,1664.267090 
z"/>
<path fill="#FE4136" opacity="1.000000" stroke="none" 
	d="
M1218.018188,967.977844 
	C1206.778564,963.043701 1195.488647,958.220520 1184.308350,953.155518 
	C1144.905029,935.304626 1105.539795,917.369507 1066.156860,899.473450 
	C1064.651489,898.789490 1063.113037,898.178467 1060.535889,897.087036 
	C1043.763916,1045.056030 1027.048340,1192.526978 1010.332886,1339.997803 
	C1009.921509,1339.989624 1009.510132,1339.981445 1009.098755,1339.973145 
	C987.343079,1193.185547 965.587341,1046.397949 943.732300,898.940002 
	C891.814880,924.679626 840.310791,950.214294 787.503113,976.395203 
	C811.825867,922.906311 835.598083,870.628052 859.695129,817.635498 
	C804.891174,799.153320 750.510803,780.814026 696.130371,762.474731 
	C696.116150,762.110046 696.101868,761.745422 696.087646,761.380737 
	C749.846313,741.226990 803.604919,721.073242 857.777466,700.764343 
	C831.991272,648.776428 806.447815,597.278076 780.237976,544.436096 
	C833.865601,568.837585 886.150574,592.628113 939.034119,616.691040 
	C956.897461,528.804382 974.654358,441.441467 992.411255,354.078522 
	C992.802917,354.019318 993.194519,353.960144 993.586182,353.900940 
	C1014.282410,440.567993 1034.978638,527.235046 1055.877441,614.750000 
	C1107.770264,589.051514 1159.122559,563.620789 1210.474854,538.190002 
	C1210.809448,538.385498 1211.144165,538.580994 1211.478882,538.776550 
	C1187.726440,591.014709 1163.973999,643.252869 1139.979858,696.022766 
	C1194.759033,714.490601 1249.337036,732.890686 1305.255371,751.742554 
	C1250.177246,772.388489 1196.362305,792.560913 1142.086182,812.906128 
	C1142.983643,814.888245 1143.719849,816.656250 1144.568604,818.368469 
	C1168.442383,866.527283 1192.328979,914.679626 1216.202515,962.838562 
	C1216.938721,964.323486 1217.557251,965.866699 1218.102539,967.711304 
	C1217.974243,968.039795 1218.018188,967.977844 1218.018188,967.977844 
z"/>
<path fill="#FE4136" opacity="1.000000" stroke="none" 
	d="
M1053.481201,1664.503662 
	C1041.844482,1674.270874 1028.478271,1679.725708 1013.923340,1679.786987 
	C979.556030,1679.931641 955.066284,1655.711914 949.365540,1626.802246 
	C942.505066,1592.011475 969.593628,1553.658081 1009.021545,1552.068604 
	C1038.034302,1550.898804 1061.244873,1567.194092 1071.367188,1591.617188 
	C1081.926270,1617.093994 1075.067383,1644.955566 1053.481201,1664.503662 
z"/>
<path fill="#FE4136" opacity="1.000000" stroke="none" 
	d="
M1217.954834,968.072510 
	C1218.145752,968.099854 1218.356201,968.094543 1218.566650,968.089111 
	C1218.414307,968.179382 1218.262085,968.269592 1218.063965,968.168823 
	C1218.018188,967.977844 1217.974243,968.039795 1217.954834,968.072510 
z"/>
</svg>